<svg width="520" height="520" viewBox="0 0 520 520" fill="none" xmlns="http://www.w3.org/2000/svg">
  <path
    d="M0.83334 260C0.83334 116.862 116.862 0.833252 260 0.833252C403.138 0.833252 519.167 116.862 519.167 260C519.167 403.138 403.138 519.167 260 519.167H0.83334L76.7433 443.257C52.6417 419.218 33.5282 390.653 20.501 359.203C7.47387 327.754 0.789944 294.041 0.83334 260ZM125.959 467.333H260C301.007 467.333 341.092 455.173 375.188 432.391C409.284 409.609 435.858 377.228 451.551 339.343C467.244 301.458 471.35 259.77 463.35 219.551C455.35 179.332 435.603 142.389 406.607 113.393C377.611 84.397 340.667 64.6505 300.449 56.6504C260.23 48.6504 218.542 52.7563 180.657 68.4489C142.772 84.1415 110.391 110.716 87.6087 144.812C64.8266 178.907 52.6667 218.993 52.6667 260C52.6667 315.773 74.7218 367.943 113.389 406.611L150.036 443.257L125.959 467.333ZM156.333 285.917H363.667C363.667 313.411 352.745 339.779 333.303 359.22C313.862 378.661 287.494 389.583 260 389.583C232.506 389.583 206.138 378.661 186.697 359.22C167.255 339.779 156.333 313.411 156.333 285.917Z"
    fill="url(#paint0_linear_206_80)" />
  <circle cx="194.5" cy="207.5" r="28.5" fill="#41D392" />
  <circle cx="312.5" cy="207.5" r="28.5" fill="#41D392" />
  <defs>
    <linearGradient id="paint0_linear_206_80" x1="260" y1="0.833252" x2="260" y2="519.167"
      gradientUnits="userSpaceOnUse">
      <stop stop-color="#41D392" />
      <stop offset="0.9998" stop-color="#5E94E3" />
      <stop offset="0.9999" stop-color="#41D392" />
    </linearGradient>
  </defs>
</svg>
